<svg xmlns="http://www.w3.org/2000/svg" viewBox="0 0 800 500" role="img" aria-labelledby="title desc">
  <title id="title">City night</title>
  <desc id="desc">Night skyline with glowing windows and stars.</desc>
  <rect width="800" height="500" fill="#0f172a"/>
  <g fill="#eab308" opacity="0.8">
    <circle cx="90" cy="80" r="2"/>
    <circle cx="180" cy="140" r="1.5"/>
    <circle cx="260" cy="60" r="2"/>
    <circle cx="600" cy="90" r="1.8"/>
    <circle cx="720" cy="130" r="2"/>
  </g>
  <rect x="60" y="220" width="120" height="260" fill="#1f2937"/>
  <rect x="220" y="180" width="150" height="300" fill="#111827"/>
  <rect x="420" y="240" width="110" height="240" fill="#1f2937"/>
  <rect x="560" y="200" width="180" height="280" fill="#0b132b"/>
  <g fill="#fbbf24">
    <rect x="90" y="260" width="18" height="22"/>
    <rect x="130" y="300" width="18" height="22"/>
    <rect x="250" y="230" width="18" height="22"/>
    <rect x="300" y="270" width="18" height="22"/>
    <rect x="460" y="280" width="18" height="22"/>
    <rect x="590" y="240" width="18" height="22"/>
    <rect x="650" y="300" width="18" height="22"/>
  </g>
  <rect y="460" width="800" height="40" fill="#0b0f1a"/>
</svg>
