<svg xmlns="http://www.w3.org/2000/svg" viewBox="0 0 800 500" role="img" aria-labelledby="title desc">
  <title id="title">Forest path</title>
  <desc id="desc">A winding path through a green forest.</desc>
  <rect width="800" height="500" fill="#064e3b"/>
  <rect y="320" width="800" height="180" fill="#14532d"/>
  <path d="M400 500 C360 380 360 300 400 220 C440 140 440 80 400 0" fill="none" stroke="#fbbf24" stroke-width="80" opacity="0.8"/>
  <path d="M400 500 C360 380 360 300 400 220 C440 140 440 80 400 0" fill="none" stroke="#f59e0b" stroke-width="40" opacity="0.9"/>
  <g fill="#16a34a">
    <circle cx="120" cy="180" r="70"/>
    <circle cx="200" cy="120" r="60"/>
    <circle cx="680" cy="180" r="70"/>
    <circle cx="600" cy="120" r="60"/>
  </g>
  <g fill="#0f172a" opacity="0.6">
    <rect x="90" y="250" width="40" height="120"/>
    <rect x="170" y="230" width="40" height="140"/>
    <rect x="610" y="230" width="40" height="140"/>
    <rect x="690" y="250" width="40" height="120"/>
  </g>
</svg>
